<svg xmlns="http://www.w3.org/2000/svg" version="1.1" xmlns:xlink="http://www.w3.org/1999/xlink" xmlns:svgjs="http://svgjs.dev/svgjs" width="1000" height="1000" viewBox="0 0 1000 1000"><rect width="1000" height="1000" fill="#111111"></rect><g transform="matrix(0.7,0,0,0.7,150,281.25)"><svg viewBox="0 0 576 360" data-background-color="#111111" preserveAspectRatio="xMidYMid meet" height="625" width="1000" xmlns="http://www.w3.org/2000/svg" xmlns:xlink="http://www.w3.org/1999/xlink"><g id="tight-bounds" transform="matrix(1,0,0,1,0,0)"><svg viewBox="0 0 576 360" height="360" width="576"><g><svg></svg></g><g><svg viewBox="0 0 576 360" height="360" width="576"><g><path xmlns="http://www.w3.org/2000/svg" d="M132.115 90l155.885-90 155.885 90v180l-155.885 90-155.885-90z" fill="#ffdb99" fill-rule="nonzero" stroke="none" stroke-width="1" stroke-linecap="butt" stroke-linejoin="miter" stroke-miterlimit="10" stroke-dasharray="" stroke-dashoffset="0" font-family="none" font-weight="none" font-size="none" text-anchor="none" style="mix-blend-mode: normal" data-fill-palette-color="tertiary"></path></g><g transform="matrix(1,0,0,1,172.8,166.06829268292682)"><svg viewBox="0 0 230.4 27.86341463414634" height="27.86341463414634" width="230.4"><g><svg viewBox="0 0 230.4 27.86341463414634" height="27.86341463414634" width="230.4"><g><svg viewBox="0 0 230.4 27.86341463414634" height="27.86341463414634" width="230.4"><g id="textblocktransform"><svg viewBox="0 0 230.4 27.86341463414634" height="27.86341463414634" width="230.4" id="textblock"><g><svg viewBox="0 0 230.4 27.86341463414634" height="27.86341463414634" width="230.4"><g transform="matrix(1,0,0,1,0,0)"><svg width="230.4" viewBox="1.75 -35.5 295.19000244140625 35.70000076293945" height="27.86341463414634" data-palette-color="#111111"><path d="M35.1-32.65L35.1-32.65 51.45-5Q52.45-3.35 52.45-2.23 52.45-1.1 51.55-0.55 50.65 0 49.45 0L49.45 0 33.35 0Q30.9 0 30.2-0.9L30.2-0.9Q30-1.2 29.65-1.95L29.65-1.95 28.2-5.05Q27.55-6.5 25.15-6.7L25.15-6.7 15.7-6.7Q14.65-6.7 14.1-6.5 13.55-6.3 13.2-5.6L13.2-5.6 11.25-1.55Q10.75-0.65 10.15-0.33 9.55 0 8.4 0L8.4 0 3.9 0Q1.95 0 1.8-1.4L1.8-1.4Q1.75-1.6 1.75-1.8L1.75-1.8Q1.75-2.95 2.5-4L2.5-4 18.15-31.6Q20.4-35.5 25.45-35.5L25.45-35.5 29.45-35.5Q33.45-35.5 35.1-32.65ZM18.9-19.85L18.9-19.85 16.6-15.3Q16.4-14.85 16.4-14.5L16.4-14.5Q16.4-13.2 17.65-13.2L17.65-13.2 22.2-13.2Q23.25-13.2 23.65-13.73 24.05-14.25 24.05-14.65 24.05-15.05 23.9-15.45L23.9-15.45 22-19.75Q21.4-21.05 20.45-21.05 19.5-21.05 18.9-19.85ZM77.8-24.55L77.8-24.55 77.9-15.3Q77.9-14.35 78.95-14.35L78.95-14.35Q82.05-14.35 83.82-16.07 85.6-17.8 85.6-20.15 85.6-22.5 83.92-24.2 82.25-25.9 79-25.9L79-25.9Q77.8-25.9 77.8-24.55ZM90.9-9.6L90.9-9.6Q91.85-8.6 97.65-2.05L97.65-2.05Q98-1.6 98-1.25L98-1.25Q98 0.05 96.85 0.05L96.85 0.05Q94.2 0.1 91.52 0.1 88.85 0.1 86.2 0.05L86.2 0.05Q84.75 0.05 83.55-1.1L83.55-1.1 79.25-7.6Q79-7.9 78.65-8L78.65-8Q77.85-8.3 77.85-7.35L77.85-7.35 77.85-2.25Q77.85-0.1 75.02 0.05 72.2 0.2 68.85 0.2 65.5 0.2 60.75-0.05L60.75-0.05Q59.3-0.15 58.42-1.05 57.55-1.95 57.4-3.1L57.4-3.1Q57-7.5 57-16.93 57-26.35 57.3-30.65 57.6-34.95 61.65-35L61.65-35Q65.45-35.05 72-35.05 78.55-35.05 82.85-34.95L82.85-34.95Q89.05-34.85 93-30.35 96.95-25.85 96.95-20.2L96.95-20.2Q96.95-16.9 95.42-14.1 93.9-11.3 90.9-9.6ZM106.85-35L106.85-35 120.25-35Q122.35-35 123.02-33.95 123.7-32.9 123.92-29.63 124.15-26.35 124.15-16.93 124.15-7.5 123.75-3.1L123.75-3.1Q123.6-1.95 122.72-1.05 121.85-0.15 120.4-0.05L120.4-0.05Q117.55 0.15 113.8 0.15 110.05 0.15 106.7-0.05L106.7-0.05Q105.25-0.15 104.37-1.05 103.5-1.95 103.35-3.1L103.35-3.1Q102.95-7.5 102.95-16.93 102.95-26.35 103.17-29.63 103.4-32.9 104.07-33.95 104.75-35 106.85-35ZM162.24-32.65L162.24-32.65 178.59-5Q179.59-3.35 179.59-2.23 179.59-1.1 178.69-0.55 177.79 0 176.59 0L176.59 0 160.49 0Q158.04 0 157.34-0.9L157.34-0.9Q157.14-1.2 156.79-1.95L156.79-1.95 155.34-5.05Q154.69-6.5 152.29-6.7L152.29-6.7 142.84-6.7Q141.79-6.7 141.24-6.5 140.69-6.3 140.34-5.6L140.34-5.6 138.39-1.55Q137.89-0.65 137.29-0.33 136.69 0 135.54 0L135.54 0 131.04 0Q129.09 0 128.94-1.4L128.94-1.4Q128.89-1.6 128.89-1.8L128.89-1.8Q128.89-2.95 129.64-4L129.64-4 145.29-31.6Q147.54-35.5 152.59-35.5L152.59-35.5 156.59-35.5Q160.59-35.5 162.24-32.65ZM146.04-19.85L146.04-19.85 143.74-15.3Q143.54-14.85 143.54-14.5L143.54-14.5Q143.54-13.2 144.79-13.2L144.79-13.2 149.34-13.2Q150.39-13.2 150.79-13.73 151.19-14.25 151.19-14.65 151.19-15.05 151.04-15.45L151.04-15.45 149.14-19.75Q148.54-21.05 147.59-21.05 146.64-21.05 146.04-19.85ZM218.24-35L218.24-35 223.59-35Q225.29-35 225.97-34.45 226.64-33.9 226.69-32.2L226.69-32.2Q226.99-24.6 226.99-15.85 226.99-7.1 226.64-3.05L226.64-3.05Q226.54-1.9 225.77-0.95 224.99 0 223.74 0L223.74 0 215.39 0Q213.64 0 211.54-1.25L211.54-1.25Q199.94-8.1 196.94-9.6L196.94-9.6Q196.34-9.85 195.97-9.43 195.59-9 195.59-7.85L195.59-7.85 195.59-2.3Q195.59-1.35 194.89-0.8L194.89-0.8Q193.84 0.05 189.49 0.05L189.49 0.05Q188.29 0.05 187.14-0.03 185.99-0.1 185.27-1.05 184.54-2 184.49-3.1L184.49-3.1Q184.34-9.1 184.34-18.18 184.34-27.25 184.39-30 184.44-32.75 185.04-33.88 185.64-35 187.34-35L187.34-35 192.84-35Q194.54-35 196.34-34.05L196.34-34.05Q211.84-26 214.44-24.7L214.44-24.7Q215.29-24.3 215.79-24.6 216.29-24.9 216.29-25.7L216.29-25.7 216.29-32.7Q216.29-33.7 216.82-34.35 217.34-35 218.24-35ZM236.49-35L236.49-35 249.89-35Q251.99-35 252.66-33.95 253.34-32.9 253.56-29.63 253.79-26.35 253.79-16.93 253.79-7.5 253.39-3.1L253.39-3.1Q253.24-1.95 252.36-1.05 251.49-0.15 250.04-0.05L250.04-0.05Q247.19 0.15 243.44 0.15 239.69 0.15 236.34-0.05L236.34-0.05Q234.89-0.15 234.01-1.05 233.14-1.95 232.99-3.1L232.99-3.1Q232.59-7.5 232.59-16.93 232.59-26.35 232.81-29.63 233.04-32.9 233.71-33.95 234.39-35 236.49-35ZM288.24-3.05L288.24-3.05Q288.19-1.95 287.29-1.03 286.39-0.1 284.89 0L284.89 0Q282.04 0.2 278.04 0.2 274.04 0.2 270.69 0L270.69 0Q269.19-0.1 268.29-1.03 267.39-1.95 267.34-3.05L267.34-3.05Q267.19-10.65 267.19-16.03 267.19-21.4 267.24-23.9L267.24-23.9Q267.24-25.8 265.54-25.8L265.54-25.8 261.04-25.8Q259.99-25.8 259.34-26.3 258.69-26.8 258.61-28.05 258.54-29.3 258.54-30.65 258.54-32 258.61-32.98 258.69-33.95 259.41-34.48 260.14-35 260.99-35L260.99-35Q267.49-35.1 278.59-35.1 289.69-35.1 294.49-35L294.49-35Q295.34-34.95 296.06-34.45 296.79-33.95 296.86-32.98 296.94-32 296.94-30.7 296.94-29.4 296.89-28.2L296.89-28.2Q296.74-25.95 294.44-25.95L294.44-25.95 289.94-25.95Q288.24-25.95 288.24-24.2L288.24-24.2Q288.39-17.9 288.39-12.8 288.39-7.7 288.24-3.05Z" opacity="1" transform="matrix(1,0,0,1,0,0)" fill="#111111" class="undefined-text-0" data-fill-palette-color="quaternary" id="text-0"></path></svg></g></svg></g></svg></g></svg></g></svg></g></svg></g></svg></g><defs></defs></svg><rect width="576" height="360" fill="none" stroke="none" visibility="hidden"></rect></g></svg></g></svg>